#N canvas 766 77 1070 717 10;
#X obj 251 271 dac~;
#X obj 252 40 netreceive 3000;
#X msg 131 196 \; pd dsp 1;
#X obj 131 125 loadbang;
#X obj 131 165 del 100;
#X text 47 164 important ->;
#X obj 828 279 dac~;
#X obj 882 275 dac~;
#X obj 793 205 osc~ 659;
#X obj 810 232 osc~ 783;
#X floatatom 252 83 5 0 0 0 - - -;
#X obj 251 165 osc~ 440;
#X obj 659 323 *~ 0.1;
#X floatatom 649 267 5 0 1 0 - - -;
#X obj 666 192 netreceive 2000;
#X obj 527 46 route 0 1;
#X obj 333 184 *~ 1;
#X floatatom 524 147 5 0 0 0 - - -;
#X connect 1 0 15 0;
#X connect 3 0 4 0;
#X connect 4 0 2 0;
#X connect 10 0 11 0;
#X connect 11 0 16 0;
#X connect 14 0 13 0;
#X connect 15 0 10 0;
#X connect 15 1 17 0;
#X connect 16 0 0 0;
#X connect 16 0 0 1;
#X connect 17 0 16 1;
