#N canvas -8 -8 1280 717 10;
#X obj 456 751 dac~;
#X obj 639 579 tabwrite~ array1;
#N canvas 0 50 450 250 (subpatch) 0;
#X array array1 100 float 3;
#A 0 0.154204 0.178485 0.203158 0.228177 0.253502 0.279098 0.304933
0.330979 0.357213 0.383614 0.410162 0.436842 0.463638 0.490538 0.517531
0.544606 0.571755 0.59897 0.626244 0.653571 0.680946 0.708363 0.735819
0.763311 0.790833 0.818384 0.845962 0.873562 0.901184 0.928826 0.93435
0.935272 0.932231 0.925782 0.916411 0.904539 0.890533 0.874712 0.857352
0.838694 0.818947 0.79829 0.776879 0.754849 0.732316 0.70938 0.686127
0.66263 0.638952 0.615147 0.59126 0.56733 0.54339 0.519466 0.495582
0.471755 0.448002 0.424334 0.400762 0.377293 0.353933 0.330687 0.307557
0.284545 0.261652 0.238879 0.216223 0.193685 0.171263 0.148953 0.126755
0.104665 0.0826811 0.0607995 0.0390177 0.0173323 -0.00425959 -0.0257614
-0.0471759 -0.0685066 -0.0849109 -0.0959797 -0.102366 -0.104643 -0.103312
-0.0988148 -0.0915364 -0.0818157 -0.0699497 -0.0561993 -0.0407926 -0.0239302
-0.00578797 0.0134797 0.0337375 0.0548665 0.0767624 0.0993337 0.1225
0.146191;
#X coords 0 1 100 -1 200 140 1;
#X restore 938 775 graph;
#X obj 688 459 bng 15 250 50 0 empty empty empty 17 7 0 10 -262144
-1 -1;
#X obj 432 596 +~;
#X text 328 379 vol s채gezahn;
#X obj 481 347 *~ 2;
#X obj 481 368 -~ 1;
#X obj 481 389 clip~ 0 1;
#X obj 524 434 +~;
#X obj 551 311 * -1;
#X obj 551 332 phasor~;
#X obj 551 353 *~ 2;
#X obj 551 374 -~ 1;
#X obj 551 395 clip~ 0 1;
#X obj 524 455 *~ 0.7;
#X text 568 492 vol dreieck;
#X floatatom 444 289 5 0 0 0 - - -;
#X floatatom 635 308 5 0 0 0 - - -;
#X obj 473 11 netreceive 3000;
#X text 685 875 als 체berpr체fung beim finalen wegmachen;
#X obj 281 348 lop~ 322;
#X obj 525 476 lop~ 868;
#X text 334 351 lop s채gezahn;
#X text 581 477 lop Dreieck;
#X msg 1229 107 \; pd dsp 1;
#X obj 1229 36 loadbang;
#X obj 1229 76 del 100;
#X text 1145 75 important ->;
#X obj 345 249 spigot;
#X obj 575 67 route 0 1 2;
#X text 562 34 0=Frequenz 1=Volume werte von 0-1 2= welcher sopund
(1=8bit 0=sinus;
#X obj 479 206 metro 1000;
#X msg 480 231 0;
#X text 504 231 schaltet die frequenz auf null;
#X floatatom 501 116 5 0 0 0 - - -;
#X floatatom 547 107 5 0 0 0 - - -;
#X floatatom 597 94 5 0 0 0 - - -;
#X text 257 93 zum testen (so wie print zwischendurch);
#X obj 930 193 metro 1000;
#X msg 931 218 0;
#X text 955 218 schaltet die frequenz auf null;
#X obj 933 244 spigot;
#X obj 270 317 phasor~;
#X obj 481 326 phasor~;
#X obj 895 421 *~;
#X obj 1156 617 +~;
#X text 865 234 vol sinus;
#X floatatom 855 274 5 0 0 0 - - -;
#X obj 843 363 * 2;
#X obj 862 444 osc~;
#X obj 826 430 * 3;
#X obj 909 473 *~ 0.2;
#X obj 893 502 *~;
#X obj 884 575 *~;
#X obj 830 524 osc~;
#X obj 860 336 osc~;
#X obj 908 537 *~ 0.75;
#X obj 977 363 * 0.55;
#X obj 822 196 == 0;
#X obj 559 203 == 0;
#X obj 469 256 spigot;
#X obj 840 219 spigot 0;
#X obj 608 201 == 2;
#X obj 1002 190 == 2;
#X obj 556 244 +;
#X obj 1038 160 == 1;
#X obj 1007 222 +;
#X obj 437 618 -~ 1;
#X obj 291 380 *~ 0.3;
#X obj 524 496 *~ 1.2;
#X obj 443 637 *~ 1.4;
#X connect 3 0 1 0;
#X connect 4 0 68 0;
#X connect 6 0 7 0;
#X connect 7 0 8 0;
#X connect 8 0 9 0;
#X connect 9 0 15 0;
#X connect 10 0 11 0;
#X connect 11 0 12 0;
#X connect 12 0 13 0;
#X connect 13 0 14 0;
#X connect 14 0 9 1;
#X connect 15 0 22 0;
#X connect 17 0 10 0;
#X connect 17 0 43 0;
#X connect 17 0 44 0;
#X connect 18 0 71 1;
#X connect 19 0 30 0;
#X connect 21 0 69 0;
#X connect 22 0 70 0;
#X connect 26 0 27 0;
#X connect 27 0 25 0;
#X connect 29 0 17 0;
#X connect 30 0 35 0;
#X connect 30 1 36 0;
#X connect 30 2 37 0;
#X connect 32 0 33 0;
#X connect 33 0 61 0;
#X connect 35 0 29 0;
#X connect 35 0 62 0;
#X connect 36 0 32 0;
#X connect 36 0 18 0;
#X connect 36 0 58 0;
#X connect 36 0 39 0;
#X connect 37 0 29 1;
#X connect 37 0 60 0;
#X connect 37 0 59 0;
#X connect 37 0 63 0;
#X connect 37 0 64 0;
#X connect 37 0 66 0;
#X connect 39 0 40 0;
#X connect 40 0 42 0;
#X connect 42 0 48 0;
#X connect 43 0 21 0;
#X connect 44 0 6 0;
#X connect 45 0 46 0;
#X connect 46 0 0 0;
#X connect 46 0 0 1;
#X connect 46 0 1 0;
#X connect 48 0 49 0;
#X connect 48 0 51 0;
#X connect 48 0 56 0;
#X connect 49 0 50 0;
#X connect 50 0 53 0;
#X connect 51 0 55 0;
#X connect 52 0 53 1;
#X connect 53 0 46 0;
#X connect 54 0 46 0;
#X connect 55 0 54 0;
#X connect 56 0 45 0;
#X connect 57 0 54 1;
#X connect 58 0 57 0;
#X connect 58 0 52 0;
#X connect 58 0 45 1;
#X connect 59 0 62 1;
#X connect 60 0 65 0;
#X connect 61 0 17 0;
#X connect 62 0 48 0;
#X connect 63 0 65 1;
#X connect 64 0 67 0;
#X connect 65 0 61 1;
#X connect 66 0 67 0;
#X connect 67 0 42 1;
#X connect 68 0 71 0;
#X connect 69 0 4 0;
#X connect 70 0 4 1;
#X connect 71 0 0 0;
#X connect 71 0 0 1;
#X connect 71 0 1 0;
